<?xml version="1.0" encoding="UTF-8" standalone="no"?>
<!-- Generator: Adobe Illustrator 22.1.0, SVG Export Plug-In . SVG Version: 6.00 Build 0)  -->

<svg
   xmlns:dc="http://purl.org/dc/elements/1.1/"
   xmlns:cc="http://creativecommons.org/ns#"
   xmlns:rdf="http://www.w3.org/1999/02/22-rdf-syntax-ns#"
   xmlns:svg="http://www.w3.org/2000/svg"
   xmlns="http://www.w3.org/2000/svg"
   xmlns:sodipodi="http://sodipodi.sourceforge.net/DTD/sodipodi-0.dtd"
   xmlns:inkscape="http://www.inkscape.org/namespaces/inkscape"
   viewBox="0 0 30 30"
   width="24px"
   height="24px"
   version="1.1"
   id="svg7"
   sodipodi:docname="telegram.svg"
   inkscape:version="0.92.4 (5da689c313, 2019-01-14)">
  <metadata
     id="metadata13">
    <rdf:RDF>
      <cc:Work
         rdf:about="">
        <dc:format>image/svg+xml</dc:format>
        <dc:type
           rdf:resource="http://purl.org/dc/dcmitype/StillImage" />
      </cc:Work>
    </rdf:RDF>
  </metadata>
  <defs
     id="defs11" />
  <sodipodi:namedview
     pagecolor="#ffffff"
     bordercolor="#666666"
     borderopacity="1"
     objecttolerance="10"
     gridtolerance="10"
     guidetolerance="10"
     inkscape:pageopacity="0"
     inkscape:pageshadow="2"
     inkscape:window-width="1920"
     inkscape:window-height="1017"
     id="namedview9"
     showgrid="false"
     inkscape:zoom="11.313709"
     inkscape:cx="-2.8319616"
     inkscape:cy="8.3815839"
     inkscape:window-x="-8"
     inkscape:window-y="-8"
     inkscape:window-maximized="1"
     inkscape:current-layer="svg7" />
  <g
     id="Filled_1_"
     transform="matrix(1.2498874,0,0,1.3625481,-3.7483897,-5.4173013)">
    <path
       style="fill:none;stroke:#000000;stroke-width:2;stroke-miterlimit:10"
       d="M 24.634,5.128 C 23.96,5.399 9.747,11.52 4.852,13.626 4.566,13.749 4,13.936 4,14.546 c 0,0.49 0.368,0.732 0.792,0.905 1.071,0.437 5.011,2.049 5.011,2.049 0,0 1.407,4.306 1.699,5.25 0.292,0.945 0.527,0.967 0.527,0.967 0.065,0.029 0.128,0.04 0.187,0.04 0.188,0 0.333,-0.112 0.333,-0.112 l 3.672,-3.176 4.308,4.075 c 0,0 0.428,0.456 0.901,0.456 0.576,0 0.993,-0.587 1.066,-0.969 C 22.597,23.497 25.94,6.337 25.94,6.337 26.243,4.954 25.344,4.841 24.634,5.128 Z"
       id="path2"
       inkscape:connector-curvature="0" />
    <path
       d="m 20.866,10 c -0.153,0 -0.359,0.149 -0.469,0.219 -1.575,1.004 -9.469,5.597 -11.634,6.855 0.61,0.25 1.04,0.426 1.04,0.426 0,0 1.407,4.306 1.699,5.25 0.292,0.945 0.527,0.967 0.527,0.967 0.065,0.029 0.128,0.04 0.187,0.04 0.048,0 0.081,-0.017 0.121,-0.029 l 1.439,-5.76 c 0,0 6.556,-6.785 6.951,-7.18 0.318,-0.316 0.384,-0.428 0.384,-0.537 C 21.111,10.105 21.036,10 20.866,10 Z"
       id="path4"
       inkscape:connector-curvature="0" />
  </g>
</svg>
